<?xml version="1.0" encoding="utf-8"?>
<!-- Generator: Adobe Illustrator 19.1.0, SVG Export Plug-In . SVG Version: 6.00 Build 0)  -->
<svg version="1.1" id="Layer_1" xmlns="http://www.w3.org/2000/svg" xmlns:xlink="http://www.w3.org/1999/xlink" x="0px" y="0px"
	 viewBox="-169 364.3 271.2 65.7" style="enable-background:new -169 364.3 271.2 65.7;" xml:space="preserve">
<style type="text/css">
	.st0{fill:#323232;}
</style>
<polygon class="st0" points="-163,376.3 -163,379 -156.6,379 -156.6,398.6 -153.6,398.6 -153.6,379 -147.4,379 -146.4,376.3 "/>
<path class="st0" d="M-125.9,398.6c-3.5-5.7-5.5-9-6.4-9.2h-2.2v9.2h-3v-22.3h5.1c5.4,0,7.5,2.7,7.5,6.1c0,3.1-2,5.1-4.3,5.9l0,0
	c0.8,0.4,3.2,4.5,6.8,10.2L-125.9,398.6L-125.9,398.6z M-132.4,379h-2.1v7.9h2.2c2.4,0,4.3-1.9,4.3-4.1
	C-128,380.7-129.2,379-132.4,379"/>
<polygon class="st0" points="-56.1,398.6 -56.1,376.3 -53.1,376.3 -53.1,395.9 -44.8,395.9 -44.8,398.6 "/>
<polygon class="st0" points="-35.1,398.6 -35.1,376.3 -32.1,376.3 -32.1,395.9 -23.9,395.9 -23.9,398.6 "/>
<path class="st0" d="M-8.1,398.6h-6.1v-22.3h6.5c4.2,0,6,2.8,6,5.4c0,2.2-1,4-3,4.8l0,0c2.2,0.4,4.4,2.5,4.4,5.4
	C-0.3,395-2.3,398.6-8.1,398.6 M-11.2,379v6.9h2.7c1.8,0,3.6-1.2,3.6-3.5c0-2.1-1.2-3.3-3.8-3.3L-11.2,379L-11.2,379z M-7.9,388.5
	h-3.2v7.4H-8c3,0,4.6-1.6,4.6-3.9C-3.5,390-5.2,388.5-7.9,388.5"/>
<polygon class="st0" points="10.3,398.6 10.3,376.3 21.7,376.3 20.7,379 13.3,379 13.3,385.9 20.6,385.9 20.6,388.5 13.3,388.5 
	13.3,395.9 21.8,395.9 21.8,398.6 "/>
<path class="st0" d="M46.5,398.6l-2.3-5.8h-8.6l-2.1,5.8h-3l8.5-22.3h1.9l8.7,22.3H46.5z M40.9,383.4c-0.4-1.1-0.7-2-0.8-2.8l0,0
	c-0.2,0.8-0.5,1.7-0.9,2.7l-2.5,6.8h6.6L40.9,383.4z"/>
<path class="st0" d="M64,398.6h-5.5v-22.3H64c8.3,0,12.2,4.7,12.2,10.9C76.2,393.5,72.2,398.6,64,398.6 M64.2,379h-2.7v16.9h2.7
	c6.5,0,8.9-4.1,8.9-8.7C73,382.6,70.3,379,64.2,379"/>
<path class="st0" d="M90.4,398.9c-3,0-5-1-6.4-1.9l1.4-2.3c0.9,0.7,2.7,1.6,4.9,1.6c1.9,0,4.2-0.9,4.2-3.1c0-3.7-5.4-4.4-8.1-7.4
	c-0.9-1-1.6-2.3-1.6-4c0-3.2,2.4-5.7,6.7-5.7c2.4,0,4.1,0.6,5.1,1.1v3c-1.4-0.8-3.1-1.5-5-1.5c-2.1,0-3.8,0.8-3.8,2.8
	c0,4.7,9.8,4.6,9.8,11.4C97.7,396.5,94.5,398.9,90.4,398.9"/>
<path class="st0" d="M-106.3,372L-106.3,372c-0.1,0-0.1-0.1-0.1-0.2s0.1-0.2,0.2-0.2c0.1,0,0.2,0,0.2,0.1c0-0.1,0.1-0.1,0.2-0.2
	c0-0.2-0.2-0.2-0.4-0.2c-0.3,0-0.5,0.2-0.5,0.5c0,0.1,0.1,0.3,0.2,0.4C-106.4,372.1-106.3,372-106.3,372 M-90,381.8L-90,381.8
	L-90,381.8L-90,381.8L-90,381.8L-90,381.8h0.2c2.9,0,5.3,2.4,5.3,5.3c0,2.9-2.4,5.3-5.3,5.3h-0.1l0,0l0,0H-90
	c-2.9,0-5.3-2.4-5.3-5.3C-95.3,384.2-92.9,381.8-90,381.8 M-98.7,393.3c0.2,0,0.6,0.1,0.7,0.1c0.2,0.1,0.5,0.2,0.7,0.4
	c0.1,0.1,0.4,0.4,0.4,0.8c0,0.3,0,0.8,0.2,1.5c1.9,1.4,4,2.1,6.5,2.1c0.1,0,0.2,0,0.3,0c0.1,0,0.2,0,0.3,0c2.5,0,4.7-0.7,6.5-2.1
	c0.2-0.7,0.2-1.2,0.2-1.5c0-0.4,0.3-0.7,0.4-0.8c0.3-0.3,0.5-0.4,0.7-0.4c0.1,0,0.5-0.1,0.7-0.1c0.3,0,0.6,0,0.7,0
	c1.2-1.7,1.8-3.6,1.9-6.3l-0.3,0.1c0,0,0,1.4-0.9,1.5c-0.8,0.1-1.7,0.7-3,0.1c-1.1-1-1.1-2.2-0.9-2c-0.8-0.8-0.7-1.1-0.4-1.6
	c0.3-0.5,1.5-0.7,1.5-0.7l2.7-2.5c-1.3-2.5-3.6-4.5-6.3-5.4c0,0-1.5-0.7-3.5-0.7c-0.1,0-0.3,0-0.4,0s-0.3,0-0.4,0
	c-1.9,0-3.5,0.7-3.5,0.7c-2.7,0.9-5,2.9-6.3,5.4c0,0,1,1.1,2.2,2.3c0.3,0.3,1.2,0.2,1.6,0.4c0.1,0.1,0.5,0.3,0.3,1.5
	c-0.1,0.7-0.6,0.9-0.5,1.1c0,1-0.3,1-0.9,1.4c-0.5,0.4-2,0-2,0s-0.9,0.3-1.2-0.5c-0.3-0.8-0.2-1.3-0.2-1.3h-0.5
	c0.1,2.6,0.7,4.5,1.9,6.3C-99.3,393.3-99,393.3-98.7,393.3 M-97.8,402.6h-0.5c0,0,0.4-0.3,1.1-1.6c1.2-2,2-1.3,2.2-0.9
	c-0.2-0.1-0.7-0.8-1.8,1.1C-97.6,402.3-97.8,402.6-97.8,402.6 M-67,398.1c0-0.8-0.4-1.3-0.8-1.6c0,0.3,0,0.5-0.1,0.6
	c0.3,0.2,0.5,0.6,0.5,1c0,1.4-1.1,2.2-2.6,2c-0.3,0.5-0.8,0.7-1,0.6c0,0-0.5-0.2-0.7,0.5c-0.1,0.2-0.3-0.1-0.4-0.5
	c-0.1-0.3-0.1-0.8-0.1-0.8c-0.1,0-0.3,0.2-0.5,0.5c-0.1,0.2-0.5-0.4-0.6-0.6c-0.1-0.3,0.1-0.7,0-0.7c-0.2-0.1-0.8,0.1-0.9,0.4
	c0,0-0.3-0.2-0.3-0.6c0-0.6,0.2-0.9,0.2-1.2c-0.1-0.4-0.3-0.3-0.6-0.6c-3.4-3.7-6.4-2.8-6.5-1.5c0,0.9-0.3,2-0.7,2.8
	c-0.3,0.8,0.1,1.8,1.4,1.7c1.2-0.1,2,0.8,1.8,1.6c0-0.2-0.3-1-0.8-1.1l-1.4-0.2c-1.2,0-1.8-1.2-1.4-2c0.1-0.2,0.1-0.4,0.2-0.5
	c-0.5,0.3-1.6,1-2,1.1c-0.4,0.2-0.5,0.5-0.6,0.7c-0.2,0.7,0.8,1.7,1.5,2.2c1,0.7,1,1.6,0.4,2.1c0.1-0.3,0.5-0.9-0.7-1.8
	c-0.4-0.3-0.8-0.6-1-0.9c0,0-0.2-0.2-0.3-0.4c-0.4-0.6-0.6-1.1-0.2-1.7c-0.7,0.2-1.1,0.3-1.8,0.4c-1.1,0.1-1.8,0.2-2.6,0.2
	c-0.8,0-1.5-0.1-2.6-0.2c-0.7-0.1-1.1-0.2-1.8-0.4c0.3,0.5,0.1,1.1-0.2,1.7c-0.1,0.1-0.3,0.4-0.3,0.4c-0.3,0.3-0.6,0.6-1,0.9
	c-1.3,0.9-0.8,1.5-0.7,1.8c-0.6-0.6-0.6-1.5,0.4-2.1c0.7-0.5,1.7-1.5,1.5-2.2c-0.1-0.2-0.2-0.5-0.6-0.7c-0.4-0.1-1.5-0.8-2-1.1
	c0.1,0.2,0.1,0.3,0.2,0.5c0.3,0.8-0.2,2-1.4,2l-1.4,0.2c-0.6,0.1-0.8,0.9-0.8,1.1c-0.2-0.8,0.5-1.7,1.8-1.6c1.2,0.1,1.7-0.9,1.4-1.7
	c-0.3-0.8-0.7-1.9-0.7-2.8c0-1.3-3-2.2-6.5,1.5c-0.3,0.3-0.5,0.2-0.6,0.6c-0.1,0.3,0.1,0.7,0.2,1.2c0,0.4-0.3,0.6-0.3,0.6
	c-0.1-0.2-0.7-0.5-0.9-0.4c-0.1,0,0.1,0.5,0,0.7s-0.5,0.9-0.6,0.6c-0.2-0.4-0.4-0.6-0.5-0.5c0,0,0,0.5-0.1,0.8
	c-0.1,0.4-0.4,0.7-0.4,0.5c-0.3-0.8-0.7-0.6-0.7-0.6c-0.2,0.1-0.7-0.2-1-0.6c-1.5,0.1-2.6-0.7-2.6-2c0-0.4,0.2-0.8,0.5-1
	c-0.1-0.1-0.2-0.3-0.1-0.6c-0.4,0.3-0.8,0.8-0.8,1.6c0,0.6,0.2,1.2,0.3,1.4c0.1,0.2,0.7,1.6,0.5,2.9c-0.2,1.3,3.9,3.7,9.6-1.9
	c2.9-2.9,4.1-1.6,4.1-1.6c-0.5,0-1.7-0.3-3.3,1.4c0.2,0.4,0.3,1.3,0.3,1.4c0,0.2-0.3,0.9,0.4,0.9c0.7-0.1,3,0.7,3.2,0.5
	c-0.2,1,1,2,1.8,1.6c1.7-0.9,3.5-1.9,5.4-1.9c0.1,0,0.2,0,0.3,0l0,0l0,0l0,0l0,0c0.1,0,0.2,0,0.3,0c1.9,0,3.8,0.9,5.4,1.9
	c0.8,0.4,2-0.6,1.8-1.6c0.2,0.2,2.5-0.6,3.2-0.5s0.5-0.7,0.5-0.9c0-0.2,0.1-1.1,0.3-1.4c-1.6-1.7-2.9-1.5-3.3-1.4
	c0,0,1.2-1.3,4.1,1.6c5.7,5.6,9.8,3.3,9.6,2c-0.2-1.2,0.4-2.7,0.5-2.9C-67.3,399.3-67,398.7-67,398.1"/>
<path class="st0" d="M-105.7,372c-0.7,1-1.5,0.8-1.8,0.6c0.1,0,0.2,0,0.4-0.1c-0.1-0.2-0.3-0.5-0.3-0.7c0-0.6,0.5-1.1,1.2-1.1
	c0.4,0,0.8,0.2,1,0.5c0.3-0.1,0.7,0,1.2,0.4C-104.3,371.5-105,371-105.7,372 M-100.8,380.3c-0.5-0.5-0.8-1.5-0.8-1.5
	c-0.1-1.3-2.6-1.4-2.6-1.5c0,0,0.2-0.3,1.4-0.3c0.7,0,1.2-0.4,1.2-0.4c0.2-0.2,0.5-0.6,0.3-1.2c0,0.1-0.2,0.5-0.5,0.7
	c-0.1-0.1-0.2-0.2-0.2-0.4v-0.2l0,0c0-1.4-0.9-0.5-1-0.5c0.2-0.9-0.4-0.9-0.5-0.9c0.1,0.1,0.2,0.2,0,0.6s-0.9,0.3-1.1,0.2
	c0.1,0,0.6-0.2,0.7-0.3c0,0,0.3-1,0-1c-0.2,0-0.8,0.2-1,0.3c0-0.9,0.7-0.8,0.7-0.8c0.1,0.1,0.8,0.2,1,0.1c0,0,0,0.4,0,0.5
	c-0.1,0.1-0.1,0.4,0.1,0.3c0.2,0,0.7-1.1,0.2-1.4c-0.2-0.2,0.4-0.1,0.4-0.5c-0.1-0.5-1-0.7-0.3-0.8c0.8-0.1,0.1-1.2-0.3-1.3
	c-0.5-0.1-1.4,0.4-1.6,0.4c-0.1-0.1-0.7-0.9-1.7-0.9c-0.1-0.4-0.3-1-0.9-1.2c0.1,0.1,0.4,0.7,0.2,1.3c-1.1,0.3-1.2,0.5-1.2,0.5
	c-1,0-1.6-0.9-1.6-1.2c-0.5,0.9,0.2,1.5,0.6,1.7l-0.3,0.4c-0.4,0.1-0.6,0-0.7,0c0.1,0.3,0.3,0.5,0.4,0.6v0.1c-0.5,0.1-0.9-0.1-1-0.2
	c0,0.6,0.4,0.7,0.7,0.7c0,0,0,0,0,0.1c-0.6,0.4-1.1,0-1.2,0c0.1,0.5,0.6,0.6,1,0.6c0,0.1-0.1,0.1-0.1,0.2c-0.3,0.1-0.5,0.1-0.7,0.1
	c0.1-0.1,0.1,0,0.2,0.1c-0.2,0-0.4-0.1-0.5-0.2c0.1,0.3,0.3,0.6,0.4,0.7c-0.4,0.1-0.7-0.1-0.8-0.1c0.1,0.8,0.8,0.7,1.1,0.7
	c-0.6,0.8-1.4,0.5-1.6,0.4c0.3,0.7,1.3,0.5,1.6,0.3c-0.2,1-1,1-1.4,0.8c0.6,0.9,1.1,1,1.6,1c-0.4,0.4-0.5,1.1,0,2
	c0.2-1.4,1.7-1.6,2.1-1.7c-2.1,1.7-1.1,2.9-0.8,3.2c-0.1-0.6,0.3-1.1,0.6-1.4c-0.2,1.4-0.1,3.2-0.1,3.4c-0.9,0.4-1.2,2-1.4,3.1
	c-0.2,0-0.4-0.1-0.4-0.1c0.1,0.2,0.2,0.4,0.3,0.5l0,0c0,0.1,0,0.2-0.1,0.2c-0.6,0.1-1-0.2-1.1-0.3c-0.1,0.8,0.6,0.9,0.9,1
	c-0.8,0.6-1.5,0.1-1.6,0c0.1,0.7,1,0.8,1.4,0.7c0,0.1-0.1,0.2-0.1,0.2c-0.5,0.6-1,0.4-1.4,0.2c0.2,0.5,0.4,0.8,0.6,1
	c-1.3,1.4-2.5-0.1,0.5-3.9c2.9-3.8-1.9-6.5-3.5-4.3c-0.5,0.8-1.1,0-1.2-0.3c-0.6,1.1,0.1,1.5,0.5,1.6c-0.1,0.2-0.5,0.2-0.6,0.2
	c0.3,0.3,0.6,0.3,0.8,0.2c0,0.2,0,0.5,0.1,1c0.1,1-0.2,1.5-0.8,1.4c1.9,1,2.1-0.8,2.1-1.7c0.2,0.2,0.3,0.7,0.3,0.7
	c0.3-0.4,0-0.7-0.2-0.9c1.1,0.6,1.4-0.2,1.5-0.6c-1.3,0.6-1.5-1.6-0.2-1.2c1.4,0.4,1.3,2.2,0.3,3.6c0,0-0.7,1.1-1.2,1.8
	c-0.5,0.7-1.6,2.8-0.4,4.1c0.4,0.4,1.3,0.4,2-0.3c0,0.3,0.1,0.7,0.4,1.1c0.1-0.5,0.3-0.9,0.7-1.2c0.1,0.3,0.2,0.5,0.3,0.7
	c-0.5,1.1,0,1.8,0.3,2c0-0.4,0.1-0.7,0.3-1c0.1,0.9-0.6,2-0.8,3.1c0,0.1,0,0.1-0.1,0.2c-0.2-0.3,0-0.9,0-0.9
	c-0.5,0.2-0.4,0.7-0.4,0.9c-0.1,0.2-0.5,0.2-0.6,0.3c0.3,0.4,0.7,0.3,0.9,0.2c-0.4,0.5-0.9,0.1-1.1,0.6c-0.3,0.6,1.1,1.6,1.8,2.8
	c0.3,0.5,0.4,0.8,0.7,1c0.3,0.2,0.3,0.3,0.5,0.2c0,0,0.4,0.1,0.6,0.4c0.1,0.3,0.3-0.2,0.2-0.7c-0.1-0.3-0.1-0.5,0-0.5
	c0.1-0.1,0.4-0.1,0.6,0.1c0,0,0.2,0.1,0.3,0.4c0.2,0.2,0.2-0.5,0.2-0.7c0,0-0.1-0.3,0-0.4c0.3-0.3,0.6-0.3,0.9,0
	c0.4,0.3,0.5-0.2,0.2-0.9c-0.3-0.7-1-1.2-1.9-1.3c-0.8-0.1-0.8-0.2-1.1-0.5c-0.2-0.2-0.2-0.3-0.3-1.3c0,0,0-0.6,1.1-0.7
	c0.4-0.1,0.5-0.5,0.5-1c0.3,0.2,0.6,0.4,0.6,0.4c-0.3-0.5-0.3-1.3,0.1-1.7c0.1-0.1,0.2-0.2,0.3-0.4c0.4-0.2,0.7-0.4,0.8-0.4
	c0,0,0,0.1,0.1,0.4c-0.2,0.1-0.5,0-0.5,0c0.1,0.4,0.4,0.4,0.7,0.4c0,0.1,0.1,0.2,0.1,0.3c-0.3,0.3-0.8,0.3-0.9,0.3
	c0.2,0.4,0.7,0.3,1,0.1c0,0.2,0,0.3,0,0.5c0.3,0.2,0,0.2-0.2,0.2c0.2,0.2,0.4,0.3,0.5,0.4c-0.1,0.5-0.4,0.9-0.5,1
	c0.5-0.2,0.9-0.5,1.2-0.9c0.4,0.8,1,1.5,1,1.5c1-1.3,1.9-1.1,2.3-1.1c0.1,0-0.8-1.2-1.1-1.9c-0.4-1.1-0.6-2-0.6-2
	c-0.5-1.9-0.5-3.4-0.4-3.9l-0.1-0.5c0-0.6,0.2-1.6,0.3-1.2c0,0.6,0.8,1.1,1,1.3l1.5,0.6c-0.1,1,0.3,1.7,0.8,1.7h0.4
	c0.4,0.1,0.6,0.2,1,0.1c0.6-0.1,0.6-0.6,0.9-0.8c0.2-0.3,0.4-0.2,0.3-1.1c0.3-0.1,0.4-0.5,0.4-0.8c0-0.3-0.3-0.5-0.7-0.5h-0.1
	c-0.1,0-0.2,0-0.3,0c-0.5-0.4-2.4-2.2-3-3C-100.6,382.2-100.3,380.8-100.8,380.3"/>
<path class="st0" d="M-75.6,371.6c0.5-0.5,0.9-0.5,1.2-0.4c0.2-0.3,0.6-0.5,1-0.5c0.6,0,1.2,0.5,1.2,1.1c0,0.3-0.1,0.6-0.3,0.7
	c0.1,0.1,0.3,0.1,0.4,0.1c-0.3,0.2-1.2,0.4-1.8-0.6C-74.8,371-75.5,371.5-75.6,371.6 M-79.2,382.2c-0.6,0.8-2.5,2.6-3,3
	c-0.1,0-0.2,0-0.3,0h-0.1c-0.4,0-0.7,0.2-0.7,0.5c0,0.3,0.1,0.7,0.4,0.8c-0.1,0.9,0.1,0.8,0.3,1.1c0.3,0.3,0.3,0.7,0.9,0.8
	c0.4,0.1,0.7,0,1-0.1h0.4c0.5,0,0.9-0.7,0.8-1.7l1.5-0.6c0.2-0.1,1-0.6,1-1.3c0-0.5,0.3,0.6,0.3,1.2l-0.1,0.5c0,0.5,0.1,2.1-0.4,3.9
	c0,0-0.2,0.9-0.6,2c-0.2,0.7-1.1,1.9-1.1,1.9c0.4,0.1,1.3-0.1,2.3,1.1c0,0,0.5-0.7,1-1.5c0.2,0.4,0.6,0.7,1.2,0.9
	c-0.2-0.2-0.4-0.6-0.5-1c0.2-0.1,0.3-0.2,0.6-0.4c-0.2,0-0.5,0-0.6-0.2c0-0.2,0-0.3,0-0.5c0.3,0.1,0.7,0.2,1-0.2
	c-0.1,0-0.5,0.1-0.9-0.3c0-0.1,0.1-0.2,0.1-0.3c0.2,0,0.5,0,0.7-0.4c-0.1,0-0.3,0.1-0.5,0c0.1-0.2,0.1-0.4,0.1-0.4
	c0.1,0.1,0.4,0.2,0.8,0.4c0.1,0.1,0.2,0.3,0.3,0.4c0.4,0.5,0.4,1.2,0.1,1.7c0.1,0,0.4-0.2,0.7-0.4c0,0.5,0.1,0.9,0.5,1
	c1.1,0.1,1.1,0.8,1.1,0.8c-0.1,1,0,1-0.2,1.2c-0.3,0.3-0.3,0.3-1.1,0.5c-0.9,0.1-1.6,0.6-1.9,1.3c-0.3,0.7-0.2,1.2,0.2,0.9
	c0.3-0.3,0.6-0.3,0.9,0c0.2,0.1,0,0.4,0,0.4c0,0.2,0,1,0.2,0.7c0.2-0.2,0.3-0.4,0.3-0.4c0.2-0.2,0.5-0.1,0.6-0.1s0.1,0.1,0,0.5
	s0.1,1,0.2,0.7c0.1-0.3,0.6-0.4,0.6-0.4c0.2,0,0.2,0,0.5-0.2c0.3-0.2,0.4-0.6,0.7-1c0.7-1.2,2.1-2.2,1.8-2.8
	c-0.2-0.5-0.8-0.1-1.1-0.6c0.2,0.1,0.5,0.2,0.9-0.2c-0.2,0-0.6-0.1-0.6-0.3c0-0.2,0.1-0.7-0.4-0.9c0,0,0.2,0.6,0,0.9
	c0-0.1,0-0.1-0.1-0.2c-0.2-1.1-0.9-2.2-0.8-3.1c0.2,0.3,0.3,0.6,0.3,1c0.3-0.2,0.8-1,0.3-2c0.2-0.2,0.3-0.4,0.3-0.7
	c0.3,0.3,0.6,0.6,0.7,1.2c0.3-0.4,0.4-0.8,0.4-1.1c0.7,0.6,1.6,0.7,2,0.3c1.2-1.2,0.1-3.4-0.4-4.1c-0.5-0.7-1.2-1.8-1.2-1.8
	c-1-1.4-1.1-3.2,0.3-3.6c1.3-0.4,1.1,1.8-0.2,1.2c0.1,0.4,0.4,1.3,1.5,0.6c-0.1,0.2-0.4,0.5-0.2,0.9c0,0,0.1-0.4,0.3-0.7
	c0,0.9,0.2,2.7,2.1,1.7c-0.5,0.1-0.9-0.4-0.8-1.4c0.1-0.5,0.1-0.8,0.1-1c0.2,0.1,0.5,0.1,0.8-0.2c-0.1,0-0.5-0.1-0.6-0.2
	c0.4-0.1,1.1-0.5,0.5-1.6c-0.1,0.3-0.7,1.1-1.2,0.3c-1.6-2.2-6.4,0.5-3.5,4.3c3,3.9,1.8,5.4,0.5,3.9c0.2-0.2,0.4-0.5,0.6-1
	c-0.3,0.2-0.9,0.4-1.4-0.2c0-0.1-0.1-0.1-0.1-0.2c0.4,0.1,1.3,0,1.4-0.7c-0.1,0.1-0.8,0.6-1.6,0c0.3,0,1-0.2,0.9-1
	c-0.1,0.1-0.6,0.4-1.1,0.3c0-0.1,0-0.2-0.1-0.2l0,0c0.1-0.1,0.3-0.3,0.3-0.5c-0.1,0.1-0.2,0.1-0.4,0.1c-0.2-1.2-0.5-2.7-1.4-3.1
	c0-0.2,0.1-1.9-0.1-3.4c0.3,0.3,0.7,0.8,0.6,1.4c0.3-0.3,1.3-1.6-0.8-3.3c0.4,0.1,1.9,0.3,2.1,1.7c0.6-0.9,0.4-1.5,0-2
	c0.5,0,1-0.1,1.6-1c-0.4,0.2-1.1,0.2-1.4-0.8c0.3,0.2,1.3,0.4,1.6-0.3c-0.1,0.1-1,0.3-1.6-0.4c0.3,0,1,0,1.1-0.7
	c-0.1,0.1-0.4,0.2-0.8,0.1c0.1-0.1,0.3-0.4,0.4-0.7c0,0.4-0.2,0.4-0.4,0.4c0.1-0.1,0.2-0.1,0.2-0.2c-0.1,0-0.3,0.1-0.6-0.1
	c0-0.1,0-0.1-0.1-0.2c0.3,0,0.9-0.1,1-0.6c-0.1,0.1-0.6,0.4-1.2,0c0,0,0,0,0-0.1c0.3,0,0.7-0.2,0.7-0.7c-0.1,0.1-0.5,0.4-1,0.2v-0.1
	c0.1-0.1,0.3-0.2,0.4-0.5c-0.1,0.1-0.3,0.1-0.7,0l-0.3-0.4c0.4-0.2,1.1-0.8,0.6-1.7c-0.2,0.4-0.7,1.3-1.8,1.3c0,0-0.1-0.2-1.2-0.5
	c-0.2-0.7,0.1-1.3,0.2-1.4c-0.6,0.2-0.8,0.8-0.9,1.2c-0.9,0-1.6,0.8-1.7,0.9c-0.2,0-1.2-0.5-1.6-0.4c-0.3,0.1-1,1.2-0.2,1.3
	s-0.2,0.3-0.3,0.8c-0.1,0.4,0.6,0.3,0.3,0.5c-0.4,0.3,0.1,1.3,0.2,1.4c0.2,0.1,0.2-0.2,0.1-0.3c0-0.1,0-0.5,0-0.5
	c0.2,0.1,0.9,0,1-0.1c0.1-0.1,0.7-0.1,0.7,0.8c-0.1-0.1-0.7-0.3-1-0.3c-0.2-0.1,0,1,0,1c0.1,0.1,0.6,0.3,0.7,0.3
	c-0.2,0.1-0.9,0.1-1.1-0.2c-0.2-0.4,0-0.5,0-0.6c-0.1,0-0.7,0.1-0.5,0.9c-0.1,0-1-0.9-1,0.5l0,0v0.2c0,0.2-0.1,0.4-0.2,0.4
	c-0.3-0.2-0.5-0.5-0.5-0.7c-0.3,0.6,0.1,1,0.3,1.2c0,0,0.4,0.4,1.2,0.4c1.2,0,1.4,0.3,1.4,0.3c-0.1,0.2-2.5,0.3-2.6,1.5
	c0,0-0.3,1-0.8,1.5C-79.5,380.8-79.2,382.2-79.2,382.2"/>
<polygon class="st0" points="-126.9,416.9 -129.3,416.9 -129.3,424.5 -130.7,424.5 -130.7,416.9 -133.3,416.9 -133.3,415.7 
	-126.5,415.7 "/>
<polygon class="st0" points="-117.2,424.5 -117.2,420.6 -121.6,420.6 -121.6,424.5 -123,424.5 -123,415.7 -121.6,415.7 
	-121.6,419.4 -117.2,419.4 -117.2,415.7 -115.7,415.7 -115.7,424.5 "/>
<polygon class="st0" points="-111.4,424.5 -111.4,415.7 -106.6,415.7 -107.1,416.9 -110,416.9 -110,419.4 -107.1,419.4 
	-107.1,420.6 -110,420.6 -110,423.3 -106.6,423.3 -106.6,424.5 "/>
<path class="st0" d="M-96.2,416.9c0.8-0.8,1.9-1.3,3.2-1.3c1.4,0,2.6,0.5,3.4,1.4c0.7,0.8,1.1,1.9,1.1,3.1c0,1.3-0.5,2.5-1.3,3.3
	c-0.8,0.8-1.9,1.2-3.2,1.2c-1.2,0-2.3-0.4-3.1-1.1c-0.9-0.8-1.4-2-1.4-3.4C-97.4,418.8-97,417.7-96.2,416.9 M-92.9,416.8
	c-1.8,0-3,1.3-3,3.3c0,2.1,1.2,3.3,3,3.3s3-1.3,3-3.3C-90,418.1-91.1,416.8-92.9,416.8"/>
<path class="st0" d="M-79.8,424.5c-1.4-2.3-2.1-3.5-2.4-3.6H-83v3.6h-1.4v-8.8h2.2c2.2,0,3.1,1.1,3.1,2.5c0,1.2-0.8,2-1.7,2.3l0,0
	c0.4,0.2,1.3,1.8,2.7,4H-79.8z M-82.2,416.9H-83v2.9h0.8c0.9,0,1.6-0.7,1.6-1.5S-81,416.9-82.2,416.9"/>
<rect x="-74.6" y="415.7" class="st0" width="1.4" height="8.8"/>
<path class="st0" d="M-64.8,424.6c-2.7,0-4.4-1.9-4.4-4.4c0-2.7,1.9-4.6,4.8-4.6c1.1,0,2,0.3,2.6,0.5v1.4c-0.6-0.3-1.5-0.7-2.5-0.7
	c-2.3,0-3.4,1.4-3.4,3.3c0,2,1.2,3.4,3.3,3.4c0.7,0,1.2-0.1,1.5-0.3v-3h1.4v3.8C-62.3,424.2-63.5,424.6-64.8,424.6"/>
<rect x="-57.3" y="415.7" class="st0" width="1.4" height="8.8"/>
<path class="st0" d="M-45.1,424.5l-4.2-5.4c-0.4-0.6-0.7-0.9-0.9-1.3l0,0c0,0.3,0,0.7,0,1.2v5.6h-1.4v-8.8h1.4l4,5.2
	c0.5,0.6,0.7,1,0.9,1.3l0,0c0-0.4,0-0.8,0-1.2v-5.3h1.4v8.8L-45.1,424.5L-45.1,424.5z"/>
<path class="st0" d="M-34,424.5l-0.9-2.3h-3.3l-0.8,2.3h-1.4l3.4-8.9h1l3.5,8.9C-32.5,424.5-34,424.5-34,424.5z M-36.2,418.7
	c-0.1-0.4-0.3-0.8-0.3-1.1l0,0c-0.1,0.3-0.2,0.7-0.3,1.1l-0.9,2.4h2.4L-36.2,418.7z"/>
<polygon class="st0" points="-29,424.5 -29,415.7 -27.6,415.7 -27.6,423.3 -24.4,423.3 -24.4,424.5 "/>
<path class="st0" d="M-13,424.6c-1.2,0-2.1-0.4-2.6-0.8l0.6-1.1c0.4,0.3,1.1,0.7,2,0.7c0.7,0,1.6-0.3,1.6-1.1c0-1.4-2.1-1.6-3.2-2.8
	c-0.4-0.4-0.6-0.9-0.6-1.6c0-1.3,1-2.4,2.8-2.4c0.9,0,1.6,0.2,2.1,0.5v1.3c-0.6-0.4-1.3-0.6-2-0.6c-0.8,0-1.4,0.3-1.4,1
	c0,1.7,3.9,1.7,3.9,4.4C-10,423.7-11.3,424.6-13,424.6"/>
<rect x="-6.1" y="415.7" class="st0" width="1.4" height="8.8"/>
<path class="st0" d="M6.1,424.5l-4.2-5.4c-0.4-0.6-0.7-0.9-0.9-1.3l0,0c0,0.3,0,0.7,0,1.2v5.6h-1.4v-8.8H1l4,5.2
	c0.5,0.6,0.7,1,0.9,1.3l0,0c0-0.4,0-0.8,0-1.2v-5.3h1.4v8.8L6.1,424.5L6.1,424.5z"/>
<path class="st0" d="M15.6,424.6c-2.8,0-4.4-1.9-4.4-4.5c0-2.6,1.9-4.6,4.7-4.6c1,0,1.8,0.2,2.3,0.5v1.3c-0.7-0.4-1.4-0.6-2.2-0.6
	c-2,0-3.2,1.5-3.2,3.3c0,1.9,1.2,3.3,3.1,3.3c0.8,0,1.5-0.2,2.1-0.6l0.4,1C17.4,424.4,16.5,424.6,15.6,424.6"/>
<polygon class="st0" points="22.1,424.5 22.1,415.7 26.8,415.7 26.4,416.9 23.5,416.9 23.5,419.4 26.4,419.4 26.4,420.6 23.5,420.6 
	23.5,423.3 26.8,423.3 26.8,424.5 "/>
<polygon class="st0" points="39.3,424.5 39.3,417.1 37.2,417.9 36.9,416.9 39.7,415.6 40.7,415.6 40.7,424.5 "/>
<path class="st0" d="M46.4,424.6c-0.6,0-1.3-0.1-1.9-0.4l0.4-1.1c0.5,0.3,1,0.4,1.6,0.4c1.5,0,2.5-1,2.6-2.9l0,0
	c-0.6,0.4-1.2,0.7-2.1,0.7c-1.2,0-2.7-0.8-2.7-2.7c0-1.8,1.3-3,3-3c1.8,0,3.2,1.3,3.2,4.1C50.5,422.8,49,424.6,46.4,424.6
	 M47.2,416.7c-1,0-1.6,0.7-1.6,1.7c0,1.1,0.6,1.8,1.6,1.8c0.7,0,1.4-0.4,1.7-0.8C49,417.7,48.3,416.7,47.2,416.7"/>
<path class="st0" d="M55.7,424.5h-1.4c0.6-3.4,2.3-6.2,3.4-7.7l-3.9,0.1l-0.3-1.2h6.1v0.5C57.7,418.5,56.4,421.3,55.7,424.5"/>
<path class="st0" d="M64.9,424.7c-1.8,0-3.2-1.2-3.2-4.2c0-2.7,1.5-4.9,3.9-4.9c0.6,0,1.2,0.1,1.9,0.4l-0.4,1.1
	c-0.5-0.2-1-0.4-1.4-0.4c-1.3,0-2.4,1-2.5,2.8c0.5-0.4,1.2-0.7,2.1-0.7c1.4,0,2.7,1,2.7,2.7C68,423.5,66.6,424.7,64.9,424.7
	 M63.2,420.7c0,1.7,0.8,2.8,1.8,2.8c0.9,0,1.6-0.7,1.6-1.7c0-1.1-0.7-1.7-1.6-1.7C64.3,420.1,63.6,420.3,63.2,420.7"/>
</svg>
